<svg xmlns="http://www.w3.org/2000/svg" viewBox="0 0 1200 700" role="img" aria-label="Core Ascension mode preview">
  <defs>
    <linearGradient id="bg" x1="0" y1="0" x2="1" y2="1">
      <stop offset="0%" stop-color="#041b16"/>
      <stop offset="100%" stop-color="#0b2e24"/>
    </linearGradient>
    <pattern id="grid" width="28" height="28" patternUnits="userSpaceOnUse">
      <path d="M 28 0 L 0 0 0 28" fill="none" stroke="#27473f" stroke-width="1"/>
    </pattern>
  </defs>

  <rect width="1200" height="700" fill="url(#bg)"/>
  <rect x="0" y="0" width="280" height="700" fill="rgba(8,20,38,0.86)"/>
  <rect x="280" y="0" width="920" height="100" fill="rgba(8,20,38,0.78)"/>
  <rect x="315" y="120" width="850" height="540" rx="12" fill="#04120f" stroke="#345f56"/>
  <rect x="315" y="120" width="850" height="540" rx="12" fill="url(#grid)" opacity="0.72"/>

  <g fill="#22d3ee" opacity="0.9">
    <circle cx="430" cy="225" r="7"/><circle cx="590" cy="300" r="7"/><circle cx="740" cy="250" r="7"/>
  </g>
  <g fill="#fb923c" opacity="0.9">
    <circle cx="500" cy="430" r="7"/><circle cx="700" cy="490" r="7"/><circle cx="910" cy="360" r="7"/>
  </g>
  <g fill="#22c55e" opacity="0.95">
    <circle cx="635" cy="365" r="10"/><circle cx="850" cy="455" r="10"/><circle cx="1030" cy="300" r="10"/>
  </g>

  <rect x="28" y="150" width="224" height="160" rx="12" fill="rgba(15,23,42,0.55)" stroke="#4ade80"/>
  <text x="46" y="184" fill="#bbf7d0" font-family="Orbitron, Arial, sans-serif" font-size="15">CAMPAIGN STATS</text>
  <text x="46" y="214" fill="#e2e8f0" font-family="Inter, Arial, sans-serif" font-size="15">Level: 6</text>
  <text x="46" y="238" fill="#d946ef" font-family="Inter, Arial, sans-serif" font-size="15">Charges: 3</text>
  <text x="46" y="262" fill="#f59e0b" font-family="Inter, Arial, sans-serif" font-size="15">Objective: 42/60</text>

  <text x="40" y="72" fill="#22c55e" font-family="Orbitron, Arial, sans-serif" font-size="27" letter-spacing="2">CORE ASCENSION</text>
  <text x="330" y="62" fill="#f8fafc" font-family="Orbitron, Arial, sans-serif" font-size="38" letter-spacing="4">PARTICLES</text>
  <text x="626" y="90" fill="#86efac" font-family="Inter, Arial, sans-serif" font-size="18">PROGRESSIVE CAMPAIGN</text>
</svg>
